<?xml version="1.0" encoding="UTF-8" standalone="no"?>
<!-- Created with Inkscape (http://www.inkscape.org/) -->

<svg
   xmlns:dc="http://purl.org/dc/elements/1.1/"
   xmlns:cc="http://creativecommons.org/ns#"
   xmlns:rdf="http://www.w3.org/1999/02/22-rdf-syntax-ns#"
   xmlns:svg="http://www.w3.org/2000/svg"
   xmlns="http://www.w3.org/2000/svg"
   xmlns:sodipodi="http://sodipodi.sourceforge.net/DTD/sodipodi-0.dtd"
   xmlns:inkscape="http://www.inkscape.org/namespaces/inkscape"
   width="298.19202"
   height="164.70399"
   id="svg2"
   version="1.1"
   inkscape:version="0.48.2 r9819"
   sodipodi:docname="hanzi.svg">
  <defs
     id="defs4" />
  <sodipodi:namedview
     id="base"
     pagecolor="#ffffff"
     bordercolor="#666666"
     borderopacity="1.0"
     inkscape:pageopacity="0.0"
     inkscape:pageshadow="2"
     inkscape:zoom="0.98994949"
     inkscape:cx="129.94046"
     inkscape:cy="107.43217"
     inkscape:document-units="px"
     inkscape:current-layer="layer1"
     showgrid="false"
     fit-margin-top="20"
     fit-margin-left="20"
     fit-margin-right="20"
     fit-margin-bottom="20"
     inkscape:window-width="479"
     inkscape:window-height="413"
     inkscape:window-x="101"
     inkscape:window-y="80"
     inkscape:window-maximized="0" />
  <metadata
     id="metadata7">
    <rdf:RDF>
      <cc:Work
         rdf:about="">
        <dc:format>image/svg+xml</dc:format>
        <dc:type
           rdf:resource="http://purl.org/dc/dcmitype/StillImage" />
        <dc:title />
      </cc:Work>
    </rdf:RDF>
  </metadata>
  <g
     inkscape:label="Layer 1"
     inkscape:groupmode="layer"
     id="layer1"
     transform="translate(-415.62349,-528.9371)">
    <g
       transform="translate(523.3929,556.26825)"
       style="font-size:144px;font-style:normal;font-variant:normal;font-weight:normal;font-stretch:normal;text-align:start;line-height:125%;letter-spacing:0px;word-spacing:0px;writing-mode:lr-tb;text-anchor:start;fill:#000000;fill-opacity:1;stroke:none;font-family:TakaoExGothic;-inkscape-font-specification:TakaoExGothic"
       id="text3049">
      <path
         d="m -70.633414,108.01285 1.008,-0.432 -0.432,-1.728 c 0.72,-5.903992 1.728002,-11.664004 3.312,-17.423998 1.439999,-5.615994 3.024002,-11.088006 4.896,-16.56 l 0,-8.352 c -1.871998,3.599996 -3.744001,7.488004 -5.616,11.232 -2.159997,3.887996 -4.896003,6.912002 -8.64,9.216 0,2.015998 -0.432001,4.032002 -1.44,5.904 -0.863999,1.727998 -2.016001,3.744002 -3.6,5.616 l 0,1.44 c 1.871999,1.871998 3.456002,4.031998 4.752,6.047998 1.295999,2.304 3.168003,4.032 5.76,5.04 m 40.176,0 2.592,-1.584 c 3.023997,-4.31999 4.896001,-9.504004 5.616,-15.263998 0.72,-5.615994 2.016002,-10.944005 3.888,-16.128 3.167997,-1.871998 6.768004,-3.024001 10.6560005,-3.6 3.7439962,-0.432 7.63200359,-1.152001 11.232,-1.872 l 17.5679995,1.152 2.88,-0.576 0.432,-2.304 0.576,0 0,-1.152 -7.056,-2.016 c -6.047993,-0.432 -11.664005,-0.143999 -17.13599951,0.72 -5.47199449,1.007999 -10.80000549,2.016002 -15.98400049,3.6 l -2.736,0 1.152,-7.2 15.98400049,-6.048 0,-0.576 -0.57599999,0 0,-1.44 1.58399999,-0.576 0,-0.576 -15.40800049,-0.576 0,-1.728 c 2.735998,-0.719999 5.184003,-1.440001 7.7760005,-1.872 2.4479975,-0.432 5.3280029,-0.72 8.20799999,-0.72 1.87199811,-2.303998 3.45600131,-4.608002 4.75200001,-6.768 1.1519988,-2.159998 3.1680026,-4.032001 5.7599995,-5.328 l 1.008,-2.88 c 1.007999,0 2.016001,0 3.024,0 1.007999,0 1.584001,-0.576001 2.016,-1.728 l -0.576,-2.016 c -1.871998,-1.583998 -3.888001,-2.448 -5.76,-2.592 -2.0159975,-0.144 -4.0320012,-0.864001 -5.7599995,-1.872 l -3.888,0 0,1.008 -6.624,1.152 -1.008,0 1.584,-4.32 1.008,0 3.45599999,-9.504 14.11199951,-0.864 0,-2.3040001 0.576,0 c -0.719999,-2.5919974 -2.448002,-3.744 -5.0399995,-3.744 -2.8799971,0 -5.4720026,-0.1440004 -8.064,-0.576 l -0.57600001,-7.2 -2.73599999,-2.88 -5.472,-1.008 -1.728,0 0,1.008 -0.576,0 0.576,2.88 -0.576,1.72800003 1.152,4.89599997 0,2.016 -13.6800005,2.304 -3.312,0 -5.472,-6.048 -2.304,0 2.304,5.472 0,2.3040001 -5.472,1.152 -0.576,1.44 -6.048,3.456 7.056,0.576 1.152,3.744 3.888,-1.152 4.32,4.896 1.152,0.576 1.584,0 2.736,-8.064 7.776,-3.456 3.7440005,0.576 -0.4320005,6.048 0.4320005,3.312 -1.0080005,3.312 -12.096,3.744 -4.464,-1.008 -0.576,0 0,0.576 -1.584,0 0,0.432 -1.584,0.576 -1.728,6.048 -1.152,0 -2.16,2.88 -1.584,-0.576 -2.736,0.576 -7.632,-2.88 5.472,5.472 -0.576,1.728 0,1.152 5.472,2.16 2.16,3.888 5.04,2.592 5.472,-1.44 2.16,0 0,4.896 c -2.159997,0.719999 -4.464002,1.440001 -6.912,2.16 -2.303997,0.575999 -4.896002,0.863999 -7.344,0.432 l 0,0.576 0.576,0 0,1.152 6.048,3.456 4.896,-1.152 2.16,1.152 -0.576,6.048 c -3.167996,0.863999 -6.624003,1.728001 -10.368,2.304 -3.743996,0.575999 -7.344003,1.440001 -10.512,2.592 l -0.576,1.152 c -1.007999,0.863999 -2.304001,1.584 -3.456,2.016 -1.295998,0.431999 -2.736001,0.576 -4.176,0.576 l 0,0.576 7.632,1.728 0.576,2.016 c 2.879998,-0.863999 5.904003,-1.872001 8.784,-2.88 3.023997,-1.007999 5.904003,-2.016001 8.784,-3.168 l 1.152,0 c 0.432,5.327995 -0.144001,10.080004 -1.584,14.4 -1.583998,4.319996 -3.888003,8.496008 -7.2,12.095998 l 0,0.576 4.464,0 0,2.16 m 50.4,-5.472 0.576,-2.16 c 0.432,-1.583996 0.144,-2.735999 -0.72,-3.743998 -1.007999,-0.719999 -1.872,-1.728001 -2.448,-2.88 -0.719999,-0.432 -1.584,-1.008001 -2.304,-2.016 -0.719999,-1.007999 -1.728001,-1.152 -2.736,-0.864 l -0.432,-1.44 c -2.5919969,-1.871998 -5.3280021,-3.168001 -7.9199995,-3.744 -2.8799971,-0.575999 -5.616003,-1.008001 -8.64,-1.728 l -2.16,0 0,0.432 10.944,9.936 c 2.1599978,2.159998 4.6080026,3.888001 7.1999995,5.328 2.447998,1.583998 5.472004,2.447998 8.64,2.879998 m -90.576,-52.271998 1.008,0 0,-1.584 1.728,-0.576 1.152,-2.16 c 0,-1.871998 -0.144,-3.600002 -0.288,-5.328 -0.143999,-1.583998 -0.864001,-3.024001 -2.016,-4.032 l -2.16,-1.008 0,-1.152 c -2.159997,-2.303998 -4.752002,-3.6 -7.344,-3.888 -2.735997,-0.432 -5.472002,-1.152001 -8.064,-2.16 l -1.152,0 c 1.151999,0.719999 2.160001,1.584001 3.168,2.304 0.864,1.007999 1.440001,2.160002 1.872,3.744 l 5.472,2.592 c 1.439999,1.871998 2.736002,3.744002 3.888,5.616 1.151999,1.727998 2.016001,3.888002 2.736,6.048 l 0,1.584 m 47.232,-2.592 -2.736,0.432 -5.472,-1.008 -1.728,-2.88 0.576,-6.048 3.312,-3.744 1.584,0 1.152,2.592 3.312,0 0.576,4.032 -0.576,2.592 0,4.032 m 17.5680005,-5.04 -5.4720005,1.584 -3.888,0 0.576,-10.368 7.2000005,-2.88 2.736,0 0.576,4.608 -0.576,2.016 0.576,3.456 0,1.008 -1.728,0.576 m -52.7040005,-20.304 4.896,-2.88 0.576,-1.008 c 0,-1.439999 0,-2.880001 0,-4.176 0,-1.295999 -0.576001,-2.448001 -1.584,-3.456 -1.871998,-1.5839985 -3.888001,-2.5920006 -5.76,-3.1680001 -2.159997,-0.5759994 -4.032001,-1.0080007 -5.76,-1.728 l -7.776,0.432 c 1.871999,0.5759995 3.600002,1.7280016 5.328,3.312 1.583999,1.5839981 3.168002,2.5920011 5.04,3.1680001 1.583999,1.151999 2.736001,2.448001 3.456,3.888 0.576,1.583998 1.152001,2.880002 1.584,4.464 l 0,1.152"
         style="font-family:AoyagiKouzanFont2OTF;-inkscape-font-specification:AoyagiKouzanFont2OTF"
         id="path3054"
         inkscape:connector-curvature="0" />
      <path
         d="m 113.68659,117.37285 5.328,0 c 2.01599,-5.75999 3.888,-11.52 5.184,-17.711998 1.296,-6.191994 2.304,-12.528006 3.312,-18.864 l -2.304,-13.392 0,-2.736 c 4.75199,0 9.36,-0.576001 13.824,-1.728 4.46399,-1.151999 9.072,-1.728 13.68,-1.728 2.01599,0.431999 3.888,0.864001 5.904,1.44 1.87199,0.719999 3.456,1.440001 5.04,2.448 l 0.576,0 0,-0.864 1.872,0.432 0.576,0 0,-1.008 1.728,0 2.016,-2.448 0,-2.304 -1.44,-0.432 0,-1.008 c -2.448,-0.288 -4.89601,-0.720001 -7.056,-1.44 -2.304,-0.719999 -4.60801,-1.296001 -6.768,-1.872 l -1.872,0 -0.576,0.864 c -4.032,0.719999 -8.20801,1.296001 -12.096,1.872 -3.888,0.719999 -8.06401,1.296001 -12.096,2.016 -3.744,0 -7.34401,-0.864002 -10.224,-2.736 -3.168,-1.583998 -6.33601,-2.592 -9.936,-2.88 l -4.176,0 3.744,4.608 5.328,2.448 0,1.44 c -5.472,1.007999 -10.65601,2.448002 -15.264004,4.32 -4.751995,1.727998 -9.936005,2.88 -15.696,3.312 l -1.008,-0.576 c -1.871998,0.431999 -3.456001,1.152001 -4.896,2.448 -1.583998,1.295999 -3.456002,1.728 -5.616,1.44 l 0,1.44 -5.184,1.008 0,1.44 8.928,2.736 0,1.008 2.016,1.44 c 6.623994,-2.591997 13.248007,-5.184003 19.44,-8.208 6.335994,-2.735997 12.960004,-5.184002 19.584004,-6.912 l 2.448,0 2.304,11.808 c 0,4.751995 0,9.360004 -0.144,13.68 -0.144,4.463995 -1.00801,8.784008 -2.592,12.527998 l -4.32,3.312 0,0.72 -1.008,0 0,0.576 -0.432,0 0,0.432 -0.576,0 0,0.432 1.008,0.576 0.576,3.456 0.864,0 0,1.728 -0.432,0 0.432,1.44 m -0.864,-68.831998 3.744,-1.584 1.44,0.576 8.064,-4.464 4.896,-6.192 1.728,-1.296 3.888,-1.872 -1.008,-3.024 -8.64,-3.312 c -3.168,0.431999 -6.04801,1.152001 -8.64,2.448 -2.736,1.151999 -5.47201,2.160001 -8.496,2.88 l -7.2,-0.576 -3.744004,0.576 0,1.008 -0.864,0 -1.584,1.872 -1.296,1.008 0,1.296 0.864,0.432 3.888,6.336 c 3.167994,0 6.192004,-0.720002 8.784004,-2.16 2.73599,-1.439999 5.328,-2.880001 7.92,-4.176 l 1.008,0 -2.016,6.336 -2.736,2.88 0,1.008 m -32.976004,-7.776 5.184,-0.864 c 0.288,-2.735997 0.576001,-5.328003 0.72,-8.064 0.144,-2.591997 0.720001,-5.184003 1.728,-7.632 1.295999,-2.015998 2.880002,-3.168 4.752,-3.456 1.871999,-0.288 3.744003,-0.720001 5.76,-1.44 l 1.44,0.432 c 4.031994,-0.288 8.208004,-1.152002 11.952004,-2.736 3.74399,-1.583998 7.776,-2.880001 11.808,-3.888 3.45599,0 7.056,0 10.512,0 3.59999,0 6.768,0.288001 10.08,1.008 0.144,1.583998 0.144,3.024001 -0.432,4.464 -0.72,1.439998 -1.008,3.024002 -1.008,4.608 l -1.008,0.432 0,1.44 2.448,0.432 6.192,-1.296 1.296,0.432 0.576,0 0,-0.432 1.872,0 0.576,-1.008 7.92,-2.88 3.456,-3.312 0,-1.44 c -2.304,-1.583998 -4.89601,-2.880001 -7.92,-3.888 -2.88,-1.007999 -5.90401,-1.8720011 -8.784,-2.8800001 l -2.88,0.576 -1.44,-0.576 -3.312,1.008 -7.632,-1.44 c -4.032,0.2879997 -8.06401,0.7200005 -12.096,1.152 -4.032,0.4319996 -7.63201,1.4400011 -11.232,2.7360001 l -1.008,0 1.872,-2.8800001 2.88,-4.752 -0.864,-7.2 -15.264004,-4.752 -5.328,0 9.504004,7.20000003 c 1.58399,1.43999857 3.168,3.16800157 4.464,4.75199997 1.296,1.5839984 2.016,3.3120019 2.736,5.184 l -0.432,2.4480001 c -4.464,1.151999 -8.78401,2.592002 -12.960004,4.176 -4.463995,1.583998 -8.496003,3.600003 -12.24,6.336 l -6.192,-1.008 -4.464,-4.32 -0.432,0 2.88,6.768 -0.432,6.48 4.752,10.08"
         style="font-family:AoyagiKouzanFont2OTF;-inkscape-font-specification:AoyagiKouzanFont2OTF"
         id="path3056"
         inkscape:connector-curvature="0" />
    </g>
  </g>
</svg>
